<svg class='svg' width="15" height="22" viewBox="0 0 15 22" fill="none" xmlns="http://www.w3.org/2000/svg">
<path d="M14.2083 7.10417C14.2083 3.1775 11.0308 0 7.10417 0C3.1775 0 0 3.1775 0 7.10417C0 10.5917 2.50583 13.4721 5.8125 14.0792V16.7917H3.22917V19.375H5.8125V21.9583H8.39583V19.375H10.9792V16.7917H8.39583V14.0792C11.7025 13.4721 14.2083 10.5917 14.2083 7.10417ZM2.58333 7.10417C2.58333 4.61125 4.61125 2.58333 7.10417 2.58333C9.59708 2.58333 11.625 4.61125 11.625 7.10417C11.625 9.59708 9.59708 11.625 7.10417 11.625C4.61125 11.625 2.58333 9.59708 2.58333 7.10417Z" fill="#466FC1"/>
</svg>
