<svg width="46" height="46" viewBox="0 0 46 46" fill="none" xmlns="http://www.w3.org/2000/svg">
<path d="M23.0528 15.9464C21.2402 15.9464 19.5019 16.6664 18.2203 17.9481C16.9386 19.2297 16.2186 20.968 16.2186 22.7805C16.2186 24.5931 16.9386 26.3314 18.2203 27.613C19.5019 28.8947 21.2402 29.6147 23.0528 29.6147C24.8653 29.6147 26.6036 28.8947 27.8852 27.613C29.1669 26.3314 29.8869 24.5931 29.8869 22.7805C29.8869 20.968 29.1669 19.2297 27.8852 17.9481C26.6036 16.6664 24.8653 15.9464 23.0528 15.9464ZM23.0528 11.3903C26.0736 11.3903 28.9708 12.5903 31.1069 14.7264C33.243 16.8625 34.443 19.7597 34.443 22.7805C34.443 25.8014 33.243 28.6986 31.1069 30.8347C28.9708 32.9708 26.0736 34.1708 23.0528 34.1708C20.0319 34.1708 17.1347 32.9708 14.9986 30.8347C12.8625 28.6986 11.6625 25.8014 11.6625 22.7805C11.6625 19.7597 12.8625 16.8625 14.9986 14.7264C17.1347 12.5903 20.0319 11.3903 23.0528 11.3903ZM37.8601 10.8208C37.8601 11.576 37.5601 12.3003 37.0261 12.8343C36.4921 13.3683 35.7678 13.6683 35.0125 13.6683C34.2573 13.6683 33.533 13.3683 32.999 12.8343C32.465 12.3003 32.165 11.576 32.165 10.8208C32.165 10.0655 32.465 9.34124 32.999 8.80722C33.533 8.2732 34.2573 7.97319 35.0125 7.97319C35.7678 7.97319 36.4921 8.2732 37.0261 8.80722C37.5601 9.34124 37.8601 10.0655 37.8601 10.8208ZM23.0528 4.55611C17.4168 4.55611 16.4965 4.57205 13.8745 4.68823C12.0885 4.77252 10.8902 5.01172 9.77853 5.44455C8.84821 5.78611 8.00715 6.33359 7.31824 7.04602C6.60522 7.7349 6.057 8.57592 5.71449 9.50632C5.28166 10.6226 5.04246 11.8185 4.96045 13.6023C4.84199 16.1172 4.82832 16.9966 4.82832 22.7805C4.82832 28.4164 4.84427 29.3368 4.96045 31.9588C5.04474 33.7425 5.28394 34.9431 5.71449 36.0525C6.10176 37.0434 6.55737 37.7565 7.31368 38.5128C8.08139 39.2782 8.79442 39.7361 9.77398 40.1142C10.8993 40.5494 12.0976 40.7908 13.8745 40.8728C16.3894 40.9913 17.2688 41.005 23.0528 41.005C28.6887 41.005 29.609 40.989 32.231 40.8728C34.0125 40.7886 35.213 40.5494 36.3247 40.1188C37.2536 39.7755 38.0942 39.2292 38.785 38.5196C39.5527 37.7519 40.0106 37.0389 40.3887 36.0593C40.8216 34.9362 41.063 33.7357 41.1451 31.9588C41.2635 29.4438 41.2772 28.5645 41.2772 22.7805C41.2772 17.1446 41.2612 16.2243 41.1451 13.6023C41.0608 11.8208 40.8216 10.618 40.3887 9.50632C40.0454 8.57688 39.4982 7.73618 38.7873 7.04602C38.0987 6.33264 37.2576 5.78436 36.327 5.44227C35.2107 5.00944 34.0125 4.77024 32.231 4.68823C29.7161 4.56978 28.8367 4.55611 23.0528 4.55611ZM23.0528 0C29.2422 0 30.0145 0.0227804 32.4429 0.136683C34.869 0.250586 36.5206 0.631021 37.974 1.19598C39.4775 1.7746 40.7441 2.55825 42.0107 3.82257C43.1691 4.96136 44.0654 6.33889 44.6373 7.85928C45.2 9.31041 45.5827 10.9643 45.6966 13.3904C45.8037 15.8188 45.8333 16.5911 45.8333 22.7805C45.8333 28.97 45.8105 29.7423 45.6966 32.1707C45.5827 34.5968 45.2 36.2484 44.6373 37.7018C44.0671 39.223 43.1705 40.6009 42.0107 41.7385C40.8716 42.8965 39.4942 43.7927 37.974 44.3651C36.5229 44.9278 34.869 45.3105 32.4429 45.4244C30.0145 45.5315 29.2422 45.5611 23.0528 45.5611C16.8633 45.5611 16.091 45.5383 13.6626 45.4244C11.2365 45.3105 9.5849 44.9278 8.1315 44.3651C6.61051 43.7944 5.23274 42.8979 4.09479 41.7385C2.93619 40.5999 2.03983 39.2223 1.4682 37.7018C0.903238 36.2507 0.522803 34.5968 0.4089 32.1707C0.301831 29.7423 0.272217 28.97 0.272217 22.7805C0.272217 16.5911 0.294997 15.8188 0.4089 13.3904C0.522803 10.962 0.903238 9.31268 1.4682 7.85928C2.03825 6.33795 2.93481 4.96005 4.09479 3.82257C5.23307 2.66357 6.61074 1.76715 8.1315 1.19598C9.5849 0.631021 11.2342 0.250586 13.6626 0.136683C16.091 0.0296146 16.8633 0 23.0528 0Z" fill="#CCCCCC"/>
</svg>
