<svg width="18" height="17" viewBox="0 0 18 17" fill="none" xmlns="http://www.w3.org/2000/svg">
<g clip-path="url(#clip0_670_4)">
<path d="M17 0H13C12.45 0 12 0.45 12 1C12 1.55 12.45 2 13 2H14.58L10.61 5.97C9.73 5.36 8.66 5 7.5 5C4.46 5 2 7.46 2 10.5C2 13.54 4.46 16 7.5 16C10.54 16 13 13.54 13 10.5C13 9.34 12.64 8.27 12.03 7.38L16 3.42V5C16 5.55 16.45 6 17 6C17.55 6 18 5.55 18 5V1C18 0.45 17.55 0 17 0ZM7.5 14C5.57 14 4 12.43 4 10.5C4 8.57 5.57 7 7.5 7C9.43 7 11 8.57 11 10.5C11 12.43 9.43 14 7.5 14Z" fill="#466FC1"/>
</g>
<defs>
<clipPath id="clip0_670_4">
<rect width="17.5684" height="17" fill="white"/>
</clipPath>
</defs>
</svg>
