<svg width="47" height="46" viewBox="0 0 47 46" fill="none" xmlns="http://www.w3.org/2000/svg">
<path d="M12.6029 37.5742L14.2522 38.5378C17.0336 40.16 20.197 41.0116 23.4168 41.005C27.0212 41.005 30.5448 39.9361 33.5417 37.9336C36.5387 35.9311 38.8746 33.0848 40.254 29.7547C41.6333 26.4246 41.9942 22.7603 41.2911 19.2251C40.5879 15.6899 38.8521 12.4427 36.3034 9.89392C33.7547 7.34519 30.5074 5.60948 26.9722 4.90629C23.437 4.20309 19.7727 4.564 16.4426 5.94336C13.1125 7.32272 10.2663 9.65859 8.26374 12.6556C6.26121 15.6526 5.19237 19.1761 5.19237 22.7805C5.18572 26.0014 6.03815 29.1657 7.66178 31.9474L8.62312 33.5967L7.13555 39.0663L12.6029 37.5742ZM0.645373 45.5611L3.7253 34.2437C1.69587 30.7648 0.629645 26.8081 0.636261 22.7805C0.636261 10.1988 10.8351 0 23.4168 0C35.9985 0 46.1973 10.1988 46.1973 22.7805C46.1973 35.3622 35.9985 45.5611 23.4168 45.5611C19.391 45.5676 15.436 44.5022 11.9582 42.4743L0.645373 45.5611ZM15.1953 12.0919C15.5006 12.0691 15.8081 12.0691 16.1134 12.0828C16.2364 12.0919 16.3594 12.1056 16.4824 12.1192C16.8446 12.1603 17.2433 12.3812 17.3777 12.6865C18.0565 14.2264 18.7172 15.7778 19.355 17.3337C19.4963 17.68 19.412 18.1242 19.1432 18.557C18.9583 18.8497 18.7583 19.1326 18.544 19.4045C18.2866 19.7348 17.7331 20.3407 17.7331 20.3407C17.7331 20.3407 17.5075 20.6096 17.5941 20.9444C17.626 21.072 17.7308 21.2565 17.8265 21.4114L17.9609 21.6278C18.544 22.6006 19.3277 23.587 20.2845 24.5164C20.5578 24.7807 20.8244 25.0518 21.1114 25.3046C22.1775 26.2455 23.3849 27.0132 24.688 27.5827L24.6993 27.5872C24.893 27.6715 24.9909 27.7171 25.2734 27.8378C25.4146 27.897 25.5604 27.9494 25.7085 27.9882C25.8615 28.0271 26.0227 28.0198 26.1715 27.9671C26.3204 27.9144 26.4502 27.8186 26.5446 27.692C28.1939 25.6942 28.3442 25.5643 28.3579 25.5643V25.5689C28.4725 25.462 28.6086 25.3809 28.7571 25.331C28.9057 25.2811 29.0631 25.2636 29.219 25.2796C29.3557 25.2887 29.4946 25.3137 29.6222 25.3707C30.8319 25.9243 32.8115 26.7876 32.8115 26.7876L34.1373 27.3822C34.3606 27.4893 34.5633 27.7421 34.5701 27.9859C34.5793 28.1385 34.5929 28.3846 34.5405 28.8356C34.4676 29.4256 34.2899 30.1341 34.1123 30.5054C33.9906 30.7588 33.8291 30.9911 33.6339 31.1934C33.404 31.4347 33.1523 31.6544 32.8821 31.8495C32.7886 31.9198 32.6937 31.9881 32.5974 32.0545C32.314 32.2343 32.0229 32.4015 31.7249 32.5557C31.1383 32.8672 30.4905 33.0461 29.8272 33.0796C29.4058 33.1024 28.9844 33.1343 28.5606 33.1115C28.5424 33.1115 27.2667 32.9133 27.2667 32.9133C24.0279 32.0614 21.0326 30.4655 18.519 28.2524C18.0041 27.7991 17.528 27.3116 17.0405 26.8264C15.0131 24.8103 13.4822 22.6347 12.5528 20.5799C12.077 19.5714 11.8201 18.4737 11.7987 17.3588C11.7893 15.9757 12.2415 14.6289 13.0835 13.5316C13.2498 13.3175 13.407 13.0943 13.6781 12.8368C13.9674 12.5635 14.1497 12.4177 14.3479 12.3174C14.6114 12.1854 14.8988 12.1079 15.193 12.0896L15.1953 12.0919Z" fill="#CCCCCC"/>
</svg>
